<svg width="23" height="23" viewBox="0 0 23 23" fill="none" xmlns="http://www.w3.org/2000/svg"><g clip-path="url(#clip0)"><path d="M4.1818 0.355469L6.4818 2.84365H5.01817V9.00486H3.34544V2.84365H1.88181L4.1818 0.355469Z" fill="#2F7EAF"/></g><path d="M4.18184 13.8627L1.88184 11.3746L3.34548 11.3746L3.34548 5.21334L5.01821 5.21334L5.01821 11.3746L6.48184 11.3745L4.18184 13.8627Z" fill="#2F7EAF"/><g clip-path="url(#clip1)"><path d="M22.6341 18.4L20.0727 20.7L20.0727 19.2364L13.7303 19.2364L13.7303 17.5637L20.0727 17.5637L20.0727 16.1L22.6341 18.4Z" fill="#2F7EAF"/></g><g clip-path="url(#clip2)"><path d="M8.72955 18.4L11.2909 16.1L11.2909 17.5636L17.6333 17.5636L17.6333 19.2363L11.2909 19.2363L11.2909 20.7L8.72955 18.4Z" fill="#2F7EAF"/></g><rect x="9.28183" y="0.5" width="13.2182" height="13.2182" fill="white" stroke="#2F7EAF"/><defs><clipPath id="clip0"><rect width="8.36364" height="9.47879" fill="white"/></clipPath><clipPath id="clip1"><rect width="8.36364" height="9.75758" fill="white" transform="translate(23 14.2182) rotate(90)"/></clipPath><clipPath id="clip2"><rect width="8.36364" height="9.75758" fill="white" transform="translate(8.36365 22.5818) rotate(-90)"/></clipPath></defs></svg>