<svg width="18" height="19" viewBox="0 0 18 19" fill="none" xmlns="http://www.w3.org/2000/svg">
<path d="M16.7812 10.3907H2.53125V3.71101C2.53056 3.45946 2.57978 3.21027 2.67604 2.97786C2.77231 2.74546 2.91372 2.53446 3.09208 2.35707L3.10693 2.34223C3.38646 2.06311 3.74535 1.87709 4.13456 1.8096C4.52378 1.7421 4.92435 1.79642 5.28154 1.96512C4.9442 2.52599 4.80399 3.18351 4.88318 3.8332C4.96237 4.48289 5.25642 5.08748 5.71861 5.55089L6.125 5.95728L5.37698 6.70533L6.21662 7.54496L6.96463 6.79695L11.1093 2.65232L11.8574 1.9043L11.0177 1.06463L10.2696 1.81264L9.86325 1.40626C9.37669 0.921063 8.73532 0.621972 8.05089 0.561103C7.36646 0.500234 6.68237 0.681447 6.11783 1.07316C5.52253 0.697213 4.81706 0.534912 4.11732 0.612924C3.41758 0.690935 2.76518 1.00462 2.26729 1.50244L2.25245 1.51729C1.96346 1.8047 1.73434 2.14657 1.57836 2.52313C1.42238 2.89968 1.34264 3.30343 1.34375 3.71101V10.3907H0.15625V11.5782H1.34375V12.7175C1.34372 12.8132 1.35916 12.9083 1.38947 12.9991L2.49414 16.3129C2.55309 16.4904 2.66645 16.6447 2.81811 16.754C2.96977 16.8633 3.15202 16.9221 3.33897 16.9219H3.81768L3.38477 18.4063H4.62173L5.05469 16.9219H12.7771L13.2225 18.4063H14.4619L14.0166 16.9219H14.7859C14.9729 16.9221 15.1551 16.8634 15.3068 16.7541C15.4585 16.6447 15.5719 16.4904 15.6309 16.3129L16.7355 12.9991C16.7658 12.9083 16.7812 12.8132 16.7812 12.7175V11.5782H17.9688V10.3907H16.7812ZM6.55836 2.24593C6.88551 1.91949 7.3288 1.73615 7.79097 1.73615C8.25313 1.73615 8.69642 1.91949 9.02357 2.24593L9.42988 2.65232L6.96474 5.11745L6.55836 4.71114C6.23193 4.38398 6.04861 3.94069 6.04861 3.47854C6.04861 3.01638 6.23193 2.57309 6.55836 2.24593ZM15.5938 12.6692L14.5721 15.7344H3.55295L2.53125 12.6692V11.5782H15.5938V12.6692Z" fill="#2F7EAF"/>
</svg>
