<svg width="21" height="16" viewBox="0 0 21 16" fill="none" xmlns="http://www.w3.org/2000/svg">
<path d="M2.875 0.3125C1.69266 0.3125 0.71875 1.28641 0.71875 2.46875V7.34259C0.280312 7.73863 0 8.30572 0 8.9375V15.4062H3.59375V13.9688H16.5312V15.4062H20.125V8.9375C20.125 8.30572 19.8447 7.73863 19.4062 7.34259V2.46875C19.4062 1.28641 18.4323 0.3125 17.25 0.3125H2.875ZM2.875 1.75H17.25C17.6489 1.75 17.9688 2.06984 17.9688 2.46875V6.78125H16.5312V6.0625C16.5312 4.88016 15.5573 3.90625 14.375 3.90625H11.5C10.9494 3.90625 10.4442 4.12188 10.0625 4.46759C9.66958 4.1086 9.15722 3.90852 8.625 3.90625H5.75C4.56766 3.90625 3.59375 4.88016 3.59375 6.0625V6.78125H2.15625V2.46875C2.15625 2.06984 2.47609 1.75 2.875 1.75ZM5.75 5.34375H8.625C9.02391 5.34375 9.34375 5.66359 9.34375 6.0625V6.78125H5.03125V6.0625C5.03125 5.66359 5.35109 5.34375 5.75 5.34375ZM11.5 5.34375H14.375C14.7739 5.34375 15.0938 5.66359 15.0938 6.0625V6.78125H10.7812V6.0625C10.7812 5.66359 11.1011 5.34375 11.5 5.34375ZM2.15625 8.21875H17.9688C18.3677 8.21875 18.6875 8.53859 18.6875 8.9375V13.9688H17.9688V12.5312H2.15625V13.9688H1.4375V8.9375C1.4375 8.53859 1.75734 8.21875 2.15625 8.21875Z" fill="#2F7EAF"/>
</svg>
