<svg width="14" height="17" viewBox="0 0 14 17" fill="none" xmlns="http://www.w3.org/2000/svg"><path fill-rule="evenodd" clip-rule="evenodd" d="M0 2.55C0 1.8737 0.26866 1.2251 0.746878 0.746878C1.2251 0.26866 1.8737 0 2.55 0H11.05C11.7263 0 12.3749 0.26866 12.8531 0.746878C13.3313 1.2251 13.6 1.8737 13.6 2.55V14.45C13.6 15.1263 13.3313 15.7749 12.8531 16.2531C12.3749 16.7313 11.7263 17 11.05 17H2.55C1.8737 17 1.2251 16.7313 0.746878 16.2531C0.26866 15.7749 0 15.1263 0 14.45V2.55ZM2.55 3.4C2.55 3.17457 2.63955 2.95837 2.79896 2.79896C2.95837 2.63955 3.17457 2.55 3.4 2.55H10.2C10.4254 2.55 10.6416 2.63955 10.801 2.79896C10.9604 2.95837 11.05 3.17457 11.05 3.4V7.65C11.05 7.87543 10.9604 8.09163 10.801 8.25104C10.6416 8.41045 10.4254 8.5 10.2 8.5H3.4C3.17457 8.5 2.95837 8.41045 2.79896 8.25104C2.63955 8.09163 2.55 7.87543 2.55 7.65V3.4ZM10.2 10.2C10.4254 10.2 10.6416 10.2896 10.801 10.449C10.9604 10.6084 11.05 10.8246 11.05 11.05V13.6C11.05 13.8254 10.9604 14.0416 10.801 14.201C10.6416 14.3604 10.4254 14.45 10.2 14.45C9.97457 14.45 9.75837 14.3604 9.59896 14.201C9.43955 14.0416 9.35 13.8254 9.35 13.6V11.05C9.35 10.8246 9.43955 10.6084 9.59896 10.449C9.75837 10.2896 9.97457 10.2 10.2 10.2ZM3.4 11.9C3.62543 11.9 3.84163 11.8104 4.00104 11.651C4.16045 11.4916 4.25 11.2754 4.25 11.05C4.25 10.8246 4.16045 10.6084 4.00104 10.449C3.84163 10.2896 3.62543 10.2 3.4 10.2C3.17457 10.2 2.95837 10.2896 2.79896 10.449C2.63955 10.6084 2.55 10.8246 2.55 11.05C2.55 11.2754 2.63955 11.4916 2.79896 11.651C2.95837 11.8104 3.17457 11.9 3.4 11.9ZM4.25 13.6C4.25 13.8254 4.16045 14.0416 4.00104 14.201C3.84163 14.3604 3.62543 14.45 3.4 14.45C3.17457 14.45 2.95837 14.3604 2.79896 14.201C2.63955 14.0416 2.55 13.8254 2.55 13.6C2.55 13.3746 2.63955 13.1584 2.79896 12.999C2.95837 12.8396 3.17457 12.75 3.4 12.75C3.62543 12.75 3.84163 12.8396 4.00104 12.999C4.16045 13.1584 4.25 13.3746 4.25 13.6ZM6.8 14.45C7.02543 14.45 7.24163 14.3604 7.40104 14.201C7.56045 14.0416 7.65 13.8254 7.65 13.6C7.65 13.3746 7.56045 13.1584 7.40104 12.999C7.24163 12.8396 7.02543 12.75 6.8 12.75C6.57457 12.75 6.35837 12.8396 6.19896 12.999C6.03955 13.1584 5.95 13.3746 5.95 13.6C5.95 13.8254 6.03955 14.0416 6.19896 14.201C6.35837 14.3604 6.57457 14.45 6.8 14.45ZM7.65 11.05C7.65 11.2754 7.56045 11.4916 7.40104 11.651C7.24163 11.8104 7.02543 11.9 6.8 11.9C6.57457 11.9 6.35837 11.8104 6.19896 11.651C6.03955 11.4916 5.95 11.2754 5.95 11.05C5.95 10.8246 6.03955 10.6084 6.19896 10.449C6.35837 10.2896 6.57457 10.2 6.8 10.2C7.02543 10.2 7.24163 10.2896 7.40104 10.449C7.56045 10.6084 7.65 10.8246 7.65 11.05Z" fill="#2F7EAF"/></svg>