<svg width="22" height="16" viewBox="0 0 22 16" fill="none" xmlns="http://www.w3.org/2000/svg"><path d="M19.7326 0H2.47257C1.28594 0 0.325851 0.9 0.325851 2L0.315063 14C0.315063 15.1 1.28594 16 2.47257 16H19.7326C20.9193 16 21.8902 15.1 21.8902 14V2C21.8902 0.9 20.9193 0 19.7326 0ZM19.3011 4.25L11.6743 8.67C11.3291 8.87 10.8761 8.87 10.5309 8.67L2.90407 4.25C2.79591 4.19371 2.70118 4.11766 2.62564 4.02645C2.55009 3.93525 2.49529 3.83078 2.46456 3.71937C2.43383 3.60796 2.42781 3.49194 2.44685 3.37831C2.4659 3.26468 2.50961 3.15581 2.57536 3.0583C2.6411 2.96079 2.72751 2.87666 2.82935 2.811C2.93118 2.74533 3.04633 2.69951 3.16783 2.6763C3.28932 2.65309 3.41463 2.65297 3.53618 2.67595C3.65772 2.69893 3.77297 2.74453 3.87495 2.81L11.1026 7L18.3303 2.81C18.4322 2.74453 18.5475 2.69893 18.669 2.67595C18.7906 2.65297 18.9159 2.65309 19.0374 2.6763C19.1589 2.69951 19.274 2.74533 19.3759 2.811C19.4777 2.87666 19.5641 2.96079 19.6299 3.0583C19.6956 3.15581 19.7393 3.26468 19.7584 3.37831C19.7774 3.49194 19.7714 3.60796 19.7407 3.71937C19.7099 3.83078 19.6551 3.93525 19.5796 4.02645C19.504 4.11766 19.4093 4.19371 19.3011 4.25Z" fill="#2F7EAF"/></svg>