<svg width="24" height="20" viewBox="0 0 24 20" fill="none" xmlns="http://www.w3.org/2000/svg"><path d="M24 3.97297H19.9265V0.19043H19.0536V3.97297H15.1256V5.13683H19.0536V8.91937H19.9265V5.13683H24V3.97297Z" fill="#2F7EAF"/><path d="M10.761 11.3926C10.1791 11.1016 9.16072 10.0832 9.16072 9.5013C9.16072 8.91937 9.3062 8.48292 10.3246 7.75551C11.343 7.0281 12.0704 6.00972 12.0704 4.70038C12.0704 3.10008 11.343 1.64525 10.1791 1.20881H12.0704L13.3797 0.19043H7.26945C4.50528 0.19043 2.03208 2.22718 2.03208 4.70038C2.03208 7.17358 3.92335 9.06485 6.68752 9.06485H7.26945C6.97848 9.35582 6.97848 9.64678 6.97848 10.0832C6.97848 10.8106 7.41493 11.2471 7.85138 11.829H6.833C3.48691 11.829 0.868225 14.0113 0.868225 16.1935C0.868225 18.3757 3.77787 19.8305 7.12397 19.8305C10.9065 19.8305 13.0887 17.6483 13.0887 15.4661C12.9433 13.5748 12.3613 12.5564 10.761 11.3926ZM7.56041 8.33744C5.96011 8.33744 4.50528 6.59165 4.21432 4.5549C3.92335 2.51815 4.94173 0.917841 6.54204 0.917841C8.14234 0.917841 9.59717 2.66363 9.88813 4.70038C10.1791 6.73714 9.16072 8.48292 7.56041 8.33744ZM6.97848 18.8122C4.65077 18.8122 2.90498 17.3573 2.90498 15.6116C2.90498 13.8658 4.94173 12.4109 7.26945 12.4109C7.85138 12.4109 8.28783 12.5564 8.72427 12.7019C10.0336 13.5748 10.9065 14.0113 11.1975 15.0296C11.1975 15.1751 11.343 15.4661 11.343 15.6116C11.343 17.3573 10.1791 18.8122 6.97848 18.8122Z" fill="#2F7EAF"/></svg>