<svg width="19" height="17" viewBox="0 0 19 17" fill="none" xmlns="http://www.w3.org/2000/svg"><path d="M16.8149 1.9321C16.3737 1.49081 15.8497 1.14081 15.2731 0.902092C14.6965 0.663377 14.0785 0.540629 13.4544 0.540863C12.8303 0.541098 12.2124 0.66431 11.636 0.903458C11.0595 1.14261 10.5359 1.493 10.0949 1.93462L9.51932 2.51724L8.9485 1.93588L8.94479 1.93217C8.50371 1.49109 7.98007 1.14121 7.40378 0.902495C6.82748 0.663783 6.2098 0.54092 5.58602 0.54092C4.96224 0.54092 4.34457 0.663783 3.76827 0.902495C3.19197 1.14121 2.66833 1.49109 2.22725 1.93217L1.97083 2.1886C1.08003 3.0794 0.57959 4.28758 0.57959 5.54735C0.57959 6.80712 1.08003 8.0153 1.97083 8.9061L8.73857 15.6738L9.50284 16.4745L9.52106 16.4563L9.54084 16.476L10.2569 15.7205L17.0714 8.90599C17.9608 8.01448 18.4604 6.80657 18.4604 5.54724C18.4604 4.28791 17.9608 3.07999 17.0714 2.18849L16.8149 1.9321ZM16.2315 8.06631L9.52106 14.7769L2.81046 8.06631C2.14237 7.39822 1.76704 6.49209 1.76704 5.54726C1.76704 4.60243 2.14237 3.6963 2.81046 3.0282L3.06693 2.77177C3.7347 2.10401 4.64028 1.72871 5.58465 1.72835C6.52901 1.728 7.43488 2.10262 8.10315 2.76988L9.51676 4.20924L10.9371 2.77177C11.2679 2.44096 11.6606 2.17855 12.0928 1.99951C12.5251 1.82048 12.9883 1.72833 13.4562 1.72833C13.924 1.72833 14.3873 1.82048 14.8195 1.99951C15.2517 2.17855 15.6444 2.44096 15.9752 2.77177L16.2317 3.02816C16.8987 3.69681 17.2734 4.60276 17.2733 5.54727C17.2733 6.49178 16.8986 7.39771 16.2315 8.06631Z" fill="#2F7EAF"/></svg>