<svg width="21" height="21" viewBox="0 0 21 21" fill="none" xmlns="http://www.w3.org/2000/svg"><path d="M2.62003 4.9222C3.97926 4.9222 5.08113 3.82032 5.08113 2.4611C5.08113 1.10187 3.97926 0 2.62003 0C1.26081 0 0.158936 1.10187 0.158936 2.4611C0.158936 3.82032 1.26081 4.9222 2.62003 4.9222Z" fill="#2F7EAF"/><path d="M7.40499 6.78764V20.4418H11.6444V13.6895C11.6444 11.9078 11.9796 10.1823 14.1888 10.1823C16.3675 10.1823 16.3945 12.2194 16.3945 13.802V20.4429H20.6362V12.955C20.6362 9.27686 19.8443 6.4502 15.5453 6.4502C13.4812 6.4502 12.0977 7.58289 11.5319 8.65483H11.4746V6.78764H7.40499ZM0.496368 6.78764H4.74255V20.4418H0.496368V6.78764Z" fill="#2F7EAF"/></svg>