<svg width="15" height="19" viewBox="0 0 15 19" fill="none" xmlns="http://www.w3.org/2000/svg">
<path d="M9.34526 13.5121L11.1326 12.4859C11.3727 12.35 11.6503 12.2816 11.9315 12.2891C12.2127 12.2966 12.4856 12.3796 12.7169 12.5281L14.3144 13.5655C14.5474 13.7187 14.7262 13.9324 14.8284 14.1796C14.9306 14.4269 14.9516 14.6967 14.8887 14.9551L14.1286 17.9499C14.0825 18.1249 13.9988 18.2895 13.8824 18.4337C13.766 18.578 13.6193 18.6989 13.4512 18.7892C13.2831 18.8795 13.097 18.9373 12.9042 18.9592C12.7113 18.9811 12.5157 18.9665 12.3291 18.9164C0.154503 15.5087 0.124342 5.26179 0.595448 1.4454C0.619849 1.25826 0.6867 1.07803 0.791604 0.91656C0.896508 0.75509 1.03709 0.616041 1.20409 0.508562C1.3711 0.401082 1.56074 0.327606 1.76055 0.292969C1.96037 0.258332 2.16581 0.263318 2.36338 0.3076L5.48294 0.988026C5.76112 1.04951 6.01309 1.18676 6.20645 1.38214C6.3998 1.57752 6.52569 1.82207 6.56792 2.08436L6.85688 3.87308C6.90062 4.13109 6.86141 4.39534 6.74416 4.63284C6.6269 4.87033 6.43678 5.07053 6.19756 5.20844L4.41026 6.23455C4.41026 6.23455 3.91621 11.6452 9.34526 13.5121Z" fill="#2F7EAF"/>
</svg>
