<svg width="22" height="28" viewBox="0 0 22 28" fill="none" xmlns="http://www.w3.org/2000/svg"><path d="M13.0735 19.7817L15.6901 18.2794C16.0417 18.0804 16.448 17.9803 16.8597 17.9912C17.2714 18.0022 17.6709 18.1237 18.0095 18.3412L20.3483 19.86C20.6893 20.0842 20.9512 20.397 21.1008 20.759C21.2504 21.121 21.2811 21.516 21.1891 21.8942L20.0762 26.2786C20.0088 26.5349 19.8863 26.7759 19.7158 26.987C19.5454 27.1982 19.3307 27.3752 19.0846 27.5074C18.8384 27.6397 18.566 27.7243 18.2837 27.7563C18.0014 27.7883 17.715 27.767 17.4418 27.6937C-0.381826 22.7048 -0.425982 7.70327 0.263718 2.11606C0.299441 1.84209 0.397312 1.57824 0.550891 1.34184C0.70447 1.10545 0.910277 0.901886 1.15477 0.744535C1.39927 0.587184 1.67691 0.479616 1.96944 0.428907C2.26196 0.378198 2.56274 0.385498 2.85198 0.450326L7.41902 1.44647C7.82627 1.53648 8.19516 1.73743 8.47823 2.02346C8.76129 2.30948 8.9456 2.66752 9.00743 3.05151L9.43046 5.6702C9.4945 6.04792 9.4371 6.43479 9.26544 6.78248C9.09377 7.13017 8.81544 7.42327 8.46522 7.62516L5.84861 9.12739C5.84861 9.12739 5.12531 17.0486 13.0735 19.7817Z" fill="white"/></svg>