<svg width="11" height="18" viewBox="0 0 11 18" fill="none" xmlns="http://www.w3.org/2000/svg"><path d="M0.000404512 4.34839C-0.00219948 4.40982 0.00778986 4.47113 0.0297579 4.52856C0.0517259 4.58599 0.0852081 4.63831 0.128146 4.68232C0.171085 4.72633 0.222571 4.76108 0.279439 4.78446C0.336308 4.80783 0.397356 4.81932 0.45883 4.81823H2.02813C2.29063 4.81823 2.49987 4.60328 2.53411 4.34269C2.70531 3.09485 3.56129 2.18561 5.08684 2.18561C6.39174 2.18561 7.58631 2.83806 7.58631 4.40736C7.58631 5.61525 6.8749 6.17068 5.75071 7.01525C4.47054 7.94542 3.45667 9.03157 3.52896 10.7949L3.53466 11.2077C3.53666 11.3325 3.58764 11.4515 3.67661 11.539C3.76557 11.6266 3.88539 11.6756 4.01021 11.6756H5.55288C5.679 11.6756 5.79996 11.6255 5.88914 11.5363C5.97832 11.4471 6.02842 11.3262 6.02842 11.2001V11.0003C6.02842 9.63456 6.54772 9.237 7.94963 8.17368C9.10806 7.29297 10.3159 6.31525 10.3159 4.26279C10.3159 1.38859 7.88876 0 5.23141 0C2.82134 0 0.181112 1.12229 0.000404512 4.34839ZM2.9621 15.3107C2.9621 16.3245 3.77053 17.074 4.88331 17.074C6.04174 17.074 6.83876 16.3245 6.83876 15.3107C6.83876 14.2607 6.03984 13.5226 4.88141 13.5226C3.77053 13.5226 2.9621 14.2607 2.9621 15.3107Z" fill="#2F7EAF"/></svg>