<svg width="16" height="17" viewBox="0 0 16 17" fill="none" xmlns="http://www.w3.org/2000/svg">
<path d="M1.5 0.625C1.15678 0.625 0.805031 0.74575 0.556312 0.994469C0.30825 1.24188 0.1875 1.59363 0.1875 1.9375V9.15625C0.1875 10.9872 1.27162 12.5143 2.8125 13.4836V16.375H12.6562V13.4836C14.1971 12.5143 15.2812 10.9865 15.2812 9.15625V8.5H6.75V1.9375C6.75 1.59428 6.62925 1.24253 6.38053 0.993812C6.13313 0.74575 5.78137 0.625 5.4375 0.625H1.5ZM1.5 1.9375H5.4375V8.5H1.5V1.9375ZM2.8125 3.25V5.21875H4.125V3.25H2.8125ZM1.70475 9.8125H13.7633C13.5304 10.9458 12.8663 11.9453 11.6922 12.5812L11.3438 12.7656V15.0625H4.125V12.7656L3.77653 12.5812C2.60184 11.9453 1.93838 10.9458 1.70541 9.8125H1.70475Z" fill="#2F7EAF"/>
</svg>
