<svg width="15" height="20" viewBox="0 0 15 20" fill="none" xmlns="http://www.w3.org/2000/svg"><path d="M14.9954 15.189C14.8801 15.9966 13.2525 18.0912 12.5035 18.3948C12.2488 18.4983 12.0017 18.4727 11.804 18.3192C11.6766 18.2191 11.5459 18.0166 9.7909 15.1311L9.26924 14.2713C9.06826 13.9631 9.1067 13.5571 9.3549 13.2479C9.59981 12.9475 9.95783 12.8363 10.2686 12.9564C10.2862 12.9653 11.581 13.398 11.581 13.398C14.5331 14.3803 14.6286 14.4181 14.756 14.5126C14.9427 14.6673 15.0295 14.9086 14.9911 15.189H14.9954ZM9.08034 10.7995C8.87167 10.4781 8.87497 10.0987 9.09132 9.83732L9.91061 8.70381C11.7139 6.21765 11.8128 6.08639 11.9347 5.99962C12.0405 5.93009 12.163 5.89089 12.289 5.88619C12.4151 5.88149 12.5401 5.91146 12.6507 5.97293C13.3657 6.32444 14.8098 8.49691 14.8966 9.33119V9.359C14.9121 9.48374 14.8939 9.6104 14.8438 9.72542C14.7936 9.84045 14.7136 9.9395 14.6122 10.012C14.4771 10.0998 14.3541 10.151 10.9979 10.9753C10.4674 11.1121 10.172 11.1866 9.99847 11.25L10.0215 11.2245C9.68986 11.3257 9.31866 11.1633 9.10889 10.8273L9.08034 10.7995ZM7.02114 9.51029C6.8608 9.56145 6.37208 9.71607 5.77025 8.7294C5.77025 8.7294 1.71336 2.26315 1.61891 2.06403C1.56071 1.84045 1.63099 1.58682 1.82758 1.38215C2.43161 0.749205 5.70875 -0.180742 6.56647 0.0306096C6.84652 0.104026 7.03872 0.283119 7.10571 0.534516C7.15513 0.81261 7.55379 6.815 7.6109 8.15875C7.66691 9.30894 7.18039 9.46134 7.02114 9.51029ZM7.55599 16.0878C7.5472 19.2325 7.53951 19.3381 7.48899 19.4872C7.40223 19.7219 7.20345 19.8788 6.92889 19.9299C6.13816 20.0656 3.66493 19.1401 3.14986 18.5205C3.05594 18.4021 2.99626 18.2597 2.97743 18.109C2.96315 18.0088 2.97743 17.9087 3.01367 17.8209C3.07627 17.6584 3.16194 17.5327 5.38367 14.8953L6.03602 14.11C6.25897 13.8207 6.65433 13.734 7.02334 13.883C7.38027 14.021 7.60321 14.3336 7.57905 14.6706V16.0711L7.55599 16.0878ZM0.823788 14.0766C0.579979 14.0699 0.362528 13.9209 0.236231 13.6784C0.145077 13.4982 0.0802807 13.2023 0.0385477 12.8419C-0.0734726 11.7584 0.0638073 10.1232 0.383394 9.60373C0.534951 9.36568 0.754599 9.23998 0.997309 9.24888C1.15765 9.24888 1.30042 9.30005 4.47543 10.6238L5.40673 10.9986C5.7384 11.1221 5.94377 11.4736 5.9251 11.8741C5.90094 12.2612 5.6791 12.5593 5.35292 12.6483L4.03284 13.0732C1.07968 14.0343 0.981934 14.061 0.827082 14.0488L0.823788 14.0766ZM13.146 19.9967H13.1416L13.1383 20L13.146 19.9967Z" fill="#2F7EAF"/></svg>